<svg xmlns="http://www.w3.org/2000/svg" width="100" height="100" viewBox="0 0 100 100"><rect width="100%" height="100%" fill="#DDDDDD"/><path fill="#999999" d="M52.53 57.285h-6.54q.02-3.14.93-4.6t3.63-3.55q1.6-1.3 2.55-2.81.95-1.5.95-3.37 0-2.07-1.08-3.23-1.09-1.17-3.12-1.17-1.66 0-2.81.99-1.16.99-1.18 2.89h-6.38l-.05-.13q-.06-4.31 2.84-6.6 2.91-2.29 7.58-2.29 5.04 0 7.9 2.54 2.86 2.55 2.86 6.93 0 2.86-1.67 5.28-1.67 2.43-4.19 4.07-1.37 1.05-1.8 2.12-.42 1.07-.42 2.93m.04 3.68v5.62h-6.6v-5.62z"/></svg>